<?xml version="1.0" encoding="UTF-8" standalone="no"?>
<!-- Created with Inkscape (http://www.inkscape.org/) -->

<svg
   width="2606.53"
   height="3042.4128"
   viewBox="0 0 2606.53 3042.4128"
   version="1.1"
   id="SVGRoot"
   sodipodi:docname="background.svg"
   inkscape:version="1.2.2 (b0a8486, 2022-12-01)"
   xmlns:inkscape="http://www.inkscape.org/namespaces/inkscape"
   xmlns:sodipodi="http://sodipodi.sourceforge.net/DTD/sodipodi-0.dtd"
   xmlns="http://www.w3.org/2000/svg"
   xmlns:svg="http://www.w3.org/2000/svg">
  <sodipodi:namedview
     id="namedview506"
     pagecolor="#ffffff"
     bordercolor="#000000"
     borderopacity="0.25"
     inkscape:showpageshadow="2"
     inkscape:pageopacity="0.0"
     inkscape:pagecheckerboard="0"
     inkscape:deskcolor="#d1d1d1"
     inkscape:document-units="px"
     showgrid="false"
     inkscape:zoom="0.54191601"
     inkscape:cx="1239.1219"
     inkscape:cy="889.43672"
     inkscape:window-width="2560"
     inkscape:window-height="1314"
     inkscape:window-x="0"
     inkscape:window-y="25"
     inkscape:window-maximized="1"
     inkscape:current-layer="layer1" />
  <defs
     id="defs501" />
  <g
     inkscape:label="Lager 1"
     inkscape:groupmode="layer"
     id="layer1"
     transform="translate(-1.934455,1402.2704)">
    <path
       fill="#b8f1e6"
       fill-opacity="1"
       d="m 1.934455,-1508.838 62.08614,-19.4908 c 62.086105,-19.4906 185.896205,-58.472 310.792405,-58.472 123.6292,0 247.9824,38.9814 371.0686,77.9628 124.8962,38.9815 249.7924,77.963 372.8784,58.4722 124.3532,-19.4907 247.9823,-97.4536 372.8787,-110.4881 123.8101,-12.5471 247.9823,38.616 372.8785,77.963 123.2672,38.616 247.9824,65.4157 371.0686,65.0502 124.7151,0.3655 247.9823,-26.4342 311.3355,-38.9814 l 61.543,-13.0344 v 155.9257 h -62.0861 c -62.086,0 -185.8962,0 -310.7924,0 -123.6292,0 -247.9824,0 -371.0686,0 -124.8962,0 -249.7925,0 -372.8785,0 -124.3533,0 -247.9825,0 -372.8787,0 -123.8101,0 -247.9822,0 -372.8784,0 -123.2672,0 -247.9825,0 -371.0686,0 -124.7152,0 -247.9823,0 -311.335405,0 H 1.934465 Z"
       id="path633-2-7-5-1-9"
       style="fill:#add9df;fill-opacity:1;stroke-width:1.48493" />
    <path
       fill="#b8f1e6"
       fill-opacity="1"
       d="m 1.934455,-1405.9486 62.0861,-19.4908 c 62.086095,-19.4907 185.896255,-58.4721 310.792455,-58.4721 123.6292,0 247.9824,38.9814 371.0685,77.9629 124.8962,38.9814 249.7924,77.9628 372.87869,58.472 124.3532,-19.4906 247.9823,-97.4535 372.8787,-110.4879 123.8101,-12.5471 247.9823,38.616 372.8785,77.9628 123.2672,38.6161 247.9824,65.4158 371.0686,65.0503 124.7151,0.3655 247.9823,-26.4342 311.3355,-38.9815 l 61.543,-13.0343 v 155.9257 h -62.0861 c -62.086,0 -185.8962,0 -310.7924,0 -123.6292,0 -247.9824,0 -371.0686,0 -124.8962,0 -249.7925,0 -372.8785,0 -124.3533,0 -247.9825,0 -372.8787,0 -123.81029,0 -247.98249,0 -372.87869,0 -123.2671,0 -247.9823,0 -371.0685,0 -124.7152,0 -247.98226,0 -311.335455,0 h -61.5431 z"
       id="path633-0-1"
       style="stroke-width:1.48493" />
    <path
       fill="#b8f1e6"
       fill-opacity="1"
       d="m 1.934455,-1301.8021 62.0861,-19.4908 c 62.086105,-19.4906 185.896305,-58.472 310.792505,-58.472 123.6292,0 247.9824,38.9814 371.0686,77.9628 124.8962,38.9815 249.7925,77.963 372.87854,58.4722 124.3532,-19.4907 247.9823,-97.4536 372.8787,-110.4881 123.8101,-12.5471 247.9823,38.616 372.8785,77.963 123.2672,38.616 247.9824,65.4157 371.0686,65.0502 124.7151,0.3655 247.9823,-26.4342 311.3355,-38.9814 l 61.543,-13.0344 v 155.9257 h -62.0861 c -62.086,0 -185.8962,0 -310.7924,0 -123.6292,0 -247.9824,0 -371.0686,0 -124.8962,0 -249.7925,0 -372.8785,0 -124.3533,0 -247.9825,0 -372.8787,0 -123.81014,0 -247.98234,0 -372.87854,0 -123.2672,0 -247.9825,0 -371.0686,0 -124.7152,0 -247.9824,0 -311.335505,0 h -61.5431 z"
       id="path633-2-7-3-40"
       style="fill:#ffa69e;fill-opacity:1;stroke-width:1.48493" />
    <path
       fill="#b8f1e6"
       fill-opacity="1"
       d="m 1.934455,-1198.1149 62.0861,-19.4908 c 62.086105,-19.4906 185.896305,-58.4721 310.792505,-58.4721 123.6292,0 247.9824,38.9815 371.0686,77.9629 124.8962,38.9815 249.7924,77.9629 372.87844,58.4722 124.3532,-19.4907 247.9823,-97.4536 372.8787,-110.4881 123.8101,-12.5471 247.9824,38.616 372.8785,77.963 123.2672,38.616 247.9825,65.4157 371.0686,65.0502 124.7152,0.3655 247.9823,-26.4342 311.3355,-38.9814 l 61.5431,-13.0344 v 155.9257 h -62.0861 c -62.086,0 -185.8963,0 -310.7924,0 -123.6292,0 -247.9824,0 -371.0686,0 -124.8962,0 -249.7925,0 -372.8785,0 -124.3533,0 -247.9825,0 -372.8787,0 -123.81024,0 -247.98234,0 -372.87854,0 -123.2672,0 -247.9825,0 -371.0686,0 -124.7152,0 -247.9824,0 -311.335505,0 h -61.5431 z"
       id="path633-2-7-8"
       style="fill:#faf3dc;fill-opacity:1;stroke-width:1.48493" />
    <path
       fill="#b8f1e6"
       fill-opacity="1"
       d="m 1.934455,-1098.7391 62.0861,-19.4907 c 62.086105,-19.4907 185.896205,-58.4721 310.792405,-58.4721 123.6292,0 247.9824,38.9814 371.0686,77.9628 124.8962,38.9816 249.7924,77.963 372.87854,58.4722 124.3532,-19.4906 247.9823,-97.4536 372.8787,-110.4881 123.8101,-12.5471 247.9824,38.6161 372.8785,77.963 123.2672,38.616 247.9825,65.4157 371.0686,65.0502 124.7152,0.3655 247.9823,-26.4342 311.3355,-38.9814 l 61.5431,-13.0343 v 155.92565 h -62.0861 c -62.086,0 -185.8963,0 -310.7924,0 -123.6292,0 -247.9824,0 -371.0686,0 -124.8962,0 -249.7925,0 -372.8785,0 -124.3533,0 -247.9825,0 -372.8787,0 -123.81034,0 -247.98244,0 -372.87864,0 -123.2672,0 -247.9825,0 -371.0686,0 -124.7152,0 -247.9823,0 -311.335405,0 h -61.5431 z"
       id="path633-2-7-5-1"
       style="fill:#add9df;fill-opacity:1;stroke-width:1.48493" />
    <path
       fill="#b8f1e6"
       fill-opacity="1"
       d="m 1.934455,-995.7234 62.0861,-19.4908 c 62.086105,-19.4906 185.896305,-58.472 310.792505,-58.472 123.6292,0 247.9824,38.9814 371.0685,77.9628 124.8962,38.98142 249.7924,77.96285 372.87864,58.47208 124.3532,-19.49066 247.9823,-97.45348 372.8787,-110.48798 123.8101,-12.5471 247.9823,38.616 372.8785,77.96286 123.2672,38.61603 247.9824,65.41575 371.0686,65.05025 124.7151,0.3655 247.9823,-26.43422 311.3355,-38.98142 l 61.543,-13.03437 v 155.9257 h -62.0861 c -62.086,0 -185.8962,0 -310.7924,0 -123.6292,0 -247.9824,0 -371.0686,0 -124.8962,0 -249.7925,0 -372.8785,0 -124.3533,0 -247.9825,0 -372.8787,0 -123.81024,0 -247.98244,0 -372.87864,0 -123.2671,0 -247.9823,0 -371.0685,0 -124.7152,0 -247.9823,0 -311.335505,0 h -61.5431 z"
       id="path633-0"
       style="stroke-width:1.48493" />
    <path
       fill="#b8f1e6"
       fill-opacity="1"
       d="m 1.934455,-892.72995 62.086129,-19.49077 c 62.086096,-19.49066 185.896296,-58.47208 310.792496,-58.47208 123.6292,0 247.9824,38.98142 371.0686,77.96285 124.8962,38.98153 249.79244,77.96295 372.87852,58.47219 124.3532,-19.49066 247.9823,-97.45362 372.8787,-110.48808 123.8101,-12.5471 247.9823,38.61603 372.8785,77.96295 123.2672,38.61603 247.9824,65.41575 371.0686,65.05025 124.7151,0.3655 247.9823,-26.43422 311.3355,-38.98142 l 61.543,-13.03436 v 155.9257 h -62.0861 c -62.086,0 -185.8962,0 -310.7924,0 -123.6292,0 -247.9824,0 -371.0686,0 -124.8962,0 -249.7925,0 -372.8785,0 -124.3533,0 -247.9825,0 -372.8787,0 -123.81018,0 -247.98232,0 -372.87852,0 -123.2672,0 -247.9825,0 -371.0686,0 -124.7152,0 -247.9824,0 -311.335496,0 H 1.934455 Z"
       id="path633-2-7-3-4"
       style="fill:#ffa69e;fill-opacity:1;stroke-width:1.48493" />
    <path
       fill="#b8f1e6"
       fill-opacity="1"
       d="m 1.934455,-789.04278 62.086059,-19.49076 c 62.086096,-19.49066 185.896296,-58.47209 310.792496,-58.47209 123.6292,0 247.9824,38.98143 371.0686,77.96285 124.8962,38.98153 249.7924,77.96296 372.87839,58.47219 124.3532,-19.49066 247.9823,-97.45361 372.8787,-110.48808 123.8101,-12.54709 247.9823,38.61603 372.8785,77.96296 123.2672,38.61603 247.9824,65.41575 371.0686,65.05025 124.7151,0.3655 247.9823,-26.43422 311.3355,-38.98142 l 61.543,-13.03437 v 155.9257 h -62.0861 c -62.086,0 -185.8962,0 -310.7924,0 -123.6292,0 -247.9824,0 -371.0686,0 -124.8962,0 -249.7925,0 -372.8785,0 -124.3533,0 -247.9825,0 -372.8787,0 -123.81009,0 -247.98219,0 -372.87839,0 -123.2672,0 -247.9825,0 -371.0686,0 -124.7152,0 -247.9824,0 -311.335496,0 H 1.934455 Z"
       id="path633-2-7-92"
       style="fill:#faf3dc;fill-opacity:1;stroke-width:1.48493" />
    <path
       fill="#b8f1e6"
       fill-opacity="1"
       d="m 1.934455,-689.66694 62.086099,-19.49077 c 62.086096,-19.49066 185.896236,-58.47208 310.792436,-58.47208 123.6292,0 247.9824,38.98142 371.0686,77.96285 124.8962,38.98153 249.7924,77.96296 372.87841,58.47219 124.3532,-19.49066 247.9823,-97.45362 372.8787,-110.48808 123.8101,-12.5471 247.9823,38.61603 372.8785,77.96295 123.2672,38.61603 247.9824,65.41576 371.0686,65.05026 124.7151,0.3655 247.9823,-26.43423 311.3355,-38.98143 l 61.543,-13.03436 v 155.9257 h -62.0861 c -62.086,0 -185.8962,0 -310.7924,0 -123.6292,0 -247.9824,0 -371.0686,0 -124.8962,0 -249.7925,0 -372.8785,0 -124.3533,0 -247.9825,0 -372.8787,0 -123.81011,0 -247.98221,0 -372.87841,0 -123.2672,0 -247.9825,0 -371.0686,0 -124.7152,0 -247.98234,0 -311.335436,0 H 1.934455 Z"
       id="path633-2-7-5-9"
       style="fill:#add9df;fill-opacity:1;stroke-width:1.48493" />
    <path
       fill="#b8f1e6"
       fill-opacity="1"
       d="m 1.934455,-586.65126 62.086119,-19.49077 c 62.086086,-19.49066 185.896276,-58.47208 310.792496,-58.47208 123.62917,0 247.98238,38.98142 371.06852,77.96285 124.89619,38.98142 249.79236,77.96285 372.87861,58.47208 124.3532,-19.49066 247.9823,-97.45351 372.8787,-110.48797 123.8101,-12.5471 247.9823,38.61603 372.8785,77.96285 123.2672,38.61603 247.9824,65.41575 371.0686,65.05025 124.7151,0.3655 247.9823,-26.43422 311.3355,-38.98143 l 61.543,-13.03436 v 155.9257 h -62.0861 c -62.086,0 -185.8962,0 -310.7924,0 -123.6292,0 -247.9824,0 -371.0686,0 -124.8962,0 -249.7925,0 -372.8785,0 -124.3533,0 -247.9825,0 -372.8787,0 -123.81024,0 -247.98242,0 -372.87861,0 -123.26715,0 -247.98238,0 -371.06852,0 -124.71522,0 -247.98237,0 -311.335526,0 H 1.934455 Z"
       id="path633-1"
       style="stroke-width:1.48493" />
    <path
       fill="#b8f1e6"
       fill-opacity="1"
       d="m 1.934455,-486.31419 62.0861,-19.49076 c 62.086095,-19.49066 185.896295,-58.47209 310.792495,-58.47209 123.6292,0 247.9824,38.98143 371.0686,77.96285 124.8962,38.98153 249.7925,77.96296 372.87855,58.47219 124.3532,-19.49066 247.9823,-97.45361 372.8787,-110.48808 123.8101,-12.5471 247.9823,38.61603 372.8785,77.96296 123.2672,38.61603 247.9824,65.41575 371.0686,65.05025 124.7151,0.3655 247.9823,-26.43422 311.3355,-38.98143 l 61.543,-13.03436 v 155.9257 h -62.0861 c -62.086,0 -185.8962,0 -310.7924,0 -123.6292,0 -247.9824,0 -371.0686,0 -124.8962,0 -249.7925,0 -372.8785,0 -124.3533,0 -247.9825,0 -372.8787,0 -123.81015,0 -247.98235,0 -372.87855,0 -123.2672,0 -247.9825,0 -371.0686,0 -124.7152,0 -247.9824,0 -311.335495,0 h -61.5431 z"
       id="path633-2-7-3-1"
       style="fill:#ffa69e;fill-opacity:1;stroke-width:1.48493" />
    <path
       fill="#b8f1e6"
       fill-opacity="1"
       d="m 1.934455,-382.62701 62.0861,-19.49077 c 62.086095,-19.49066 185.896295,-58.47208 310.792495,-58.47208 123.6292,0 247.9824,38.98142 371.0686,77.96285 124.8962,38.98153 249.7924,77.96295 372.87835,58.47219 124.3532,-19.49066 247.9823,-97.45362 372.8787,-110.48808 123.8101,-12.5471 247.9823,38.61603 372.8785,77.96295 123.2672,38.61603 247.9824,65.41576 371.0686,65.05025 124.7151,0.36551 247.9823,-26.43422 311.3355,-38.98142 l 61.543,-13.03436 v 155.9257 h -62.0861 c -62.086,0 -185.8962,0 -310.7924,0 -123.6292,0 -247.9824,0 -371.0686,0 -124.8962,0 -249.7925,0 -372.8785,0 -124.3533,0 -247.9825,0 -372.8787,0 -123.81005,0 -247.98215,0 -372.87835,0 -123.2672,0 -247.9825,0 -371.0686,0 -124.7152,0 -247.9824,0 -311.335495,0 h -61.5431 z"
       id="path633-2-7-39"
       style="fill:#faf3dc;fill-opacity:1;stroke-width:1.48493" />
    <path
       fill="#b8f1e6"
       fill-opacity="1"
       d="m 1.934455,-283.25118 62.0861,-19.49076 c 62.086095,-19.49066 185.896195,-58.47209 310.792395,-58.47209 123.6292,0 247.9824,38.98143 371.0686,77.96285 124.8962,38.98154 249.7924,77.96296 372.87845,58.47219 124.3532,-19.49065 247.9823,-97.45361 372.8787,-110.48808 123.8101,-12.54709 247.9823,38.61603 372.8785,77.96296 123.2672,38.61603 247.9824,65.41575 371.0686,65.05025 124.7151,0.3655 247.9823,-26.43422 311.3355,-38.98142 l 61.543,-13.03436 v 155.925698 h -62.0861 c -62.086,0 -185.8962,0 -310.7924,0 -123.6292,0 -247.9824,0 -371.0686,0 -124.8962,0 -249.7925,0 -372.8785,0 -124.3533,0 -247.9825,0 -372.8787,0 -123.81015,0 -247.98225,0 -372.87845,0 -123.2672,0 -247.9825,0 -371.0686,0 -124.7152,0 -247.9823,0 -311.335395,0 h -61.5431 z"
       id="path633-2-7-5-73"
       style="fill:#add9df;fill-opacity:1;stroke-width:1.48493" />
    <path
       fill="#b8f1e6"
       fill-opacity="1"
       d="m 1.934455,-180.2355 62.0861,-19.49076 c 62.086095,-19.49066 185.896295,-58.47209 310.792495,-58.47209 123.6292,0 247.9824,38.98143 371.0685,77.96285 124.8962,38.98143 249.7925,77.96286 372.87865,58.47209 124.3532,-19.49066 247.9823,-97.45351 372.8787,-110.48798 123.8101,-12.5471 247.9823,38.61603 372.8785,77.96285 123.2672,38.61603 247.9824,65.415757 371.0686,65.050256 124.7151,0.365501 247.9823,-26.434226 311.3355,-38.981426 l 61.543,-13.03436 V 14.671627 h -62.0861 c -62.086,0 -185.8962,0 -310.7924,0 -123.6292,0 -247.9824,0 -371.0686,0 -124.8962,0 -249.7925,0 -372.8785,0 -124.3533,0 -247.9825,0 -372.8787,0 -123.81025,0 -247.98245,0 -372.87865,0 -123.2671,0 -247.9823,0 -371.0685,0 -124.7152,0 -247.9823,0 -311.335495,0 h -61.5431 z"
       id="path633-7"
       style="stroke-width:1.48493" />
    <path
       fill="#b8f1e6"
       fill-opacity="1"
       d="m 1.934455,-80.341617 62.086101,-19.490765 c 62.086104,-19.490658 185.896304,-58.472088 310.792504,-58.472088 123.6292,0 247.9824,38.98143 371.0686,77.962853 124.8962,38.981531 249.7925,77.9629563 372.87854,58.472191 124.3532,-19.49066 247.9823,-97.453614 372.8787,-110.488084 123.8101,-12.5471 247.9823,38.616032 372.8785,77.962958 123.2672,38.61603 247.9824,65.415752 371.0686,65.050251 124.7151,0.365501 247.9823,-26.434221 311.3355,-38.981424 l 61.543,-13.034361 V 114.56561 h -62.0861 c -62.086,0 -185.8962,0 -310.7924,0 -123.6292,0 -247.9824,0 -371.0686,0 -124.8962,0 -249.7925,0 -372.8785,0 -124.3533,0 -247.9825,0 -372.8787,0 -123.81017,0 -247.98234,0 -372.87854,0 -123.2672,0 -247.9825,0 -371.0686,0 -124.7152,0 -247.9824,0 -311.335504,0 H 1.934455 Z"
       id="path633-2-7-3-92"
       style="fill:#ffa69e;fill-opacity:1;stroke-width:1.48493" />
    <path
       fill="#b8f1e6"
       fill-opacity="1"
       d="M 1.934455,23.345559 64.020556,3.854795 c 62.086094,-19.490659 185.896294,-58.472084 310.792494,-58.472084 123.6292,0 247.9824,38.981425 371.0686,77.962848 124.8962,38.981531 249.79244,77.962961 372.87855,58.472191 124.3532,-19.49066 247.9823,-97.453614 372.8787,-110.488081 123.8101,-12.547097 247.9823,38.6160289 372.8785,77.962955 123.2672,38.61603 247.9824,65.415756 371.0686,65.050256 124.7151,0.3655 247.9823,-26.434226 311.3355,-38.981429 l 61.543,-13.034361 v 155.9257 h -62.0861 c -62.086,0 -185.8962,0 -310.7924,0 -123.6292,0 -247.9824,0 -371.0686,0 -124.8962,0 -249.7925,0 -372.8785,0 -124.3533,0 -247.9825,0 -372.8787,0 -123.81021,0 -247.98235,0 -372.87855,0 -123.2672,0 -247.9825,0 -371.0686,0 -124.7152,0 -247.9824,0 -311.335494,0 H 1.934455 Z"
       id="path633-2-7-4"
       style="fill:#faf3dc;fill-opacity:1;stroke-width:1.48493" />
    <path
       fill="#b8f1e6"
       fill-opacity="1"
       d="M 1.934455,122.7214 64.020556,103.23063 C 126.10665,83.739971 249.91679,44.758546 374.81299,44.758546 c 123.6292,0 247.9824,38.981425 371.0686,77.962854 124.8962,38.98153 249.79236,77.96295 372.87841,58.47219 124.3532,-19.49066 247.9823,-97.453619 372.8787,-110.488086 123.8101,-12.547097 247.9823,38.616026 372.8785,77.962956 123.2672,38.61603 247.9824,65.41575 371.0686,65.05025 124.7151,0.3655 247.9823,-26.43422 311.3355,-38.98142 l 61.543,-13.03436 v 155.9257 h -62.0861 c -62.086,0 -185.8962,0 -310.7924,0 -123.6292,0 -247.9824,0 -371.0686,0 -124.8962,0 -249.7925,0 -372.8785,0 -124.3533,0 -247.9825,0 -372.8787,0 -123.81015,0 -247.98221,0 -372.87841,0 -123.2672,0 -247.9825,0 -371.0686,0 -124.7152,0 -247.98234,0 -311.335434,0 H 1.934455 Z"
       id="path633-2-7-5-5"
       style="fill:#add9df;fill-opacity:1;stroke-width:1.48493" />
    <path
       fill="#b8f1e6"
       fill-opacity="1"
       d="m 1.934455,225.73707 62.086101,-19.49076 c 62.086084,-19.49066 185.896274,-58.47209 310.792494,-58.47209 123.62917,0 247.98238,38.98143 371.06852,77.96285 124.89616,38.98143 249.79249,77.96285 372.87863,58.47209 124.3532,-19.49066 247.9823,-97.45351 372.8787,-110.48798 123.8101,-12.54709 247.9823,38.61603 372.8785,77.96285 123.2672,38.61603 247.9824,65.41575 371.0686,65.05025 124.7151,0.3655 247.9823,-26.43422 311.3355,-38.98142 l 61.543,-13.03436 v 155.92568 h -62.0861 c -62.086,0 -185.8962,0 -310.7924,0 -123.6292,0 -247.9824,0 -371.0686,0 -124.8962,0 -249.7925,0 -372.8785,0 -124.3533,0 -247.9825,0 -372.8787,0 -123.81024,0 -247.98247,0 -372.87863,0 -123.26715,0 -247.98238,0 -371.06852,0 -124.71522,0 -247.98237,0 -311.335524,0 H 1.934455 Z"
       id="path633-86"
       style="stroke-width:1.48493" />
    <path
       fill="#b8f1e6"
       fill-opacity="1"
       d="m 1.934455,323.04776 62.0861,-19.49077 c 62.086095,-19.49066 185.896295,-58.47208 310.792495,-58.47208 123.6292,0 247.9824,38.98142 371.0686,77.96285 124.8962,38.98153 249.7925,77.96295 372.87855,58.47219 124.3532,-19.49066 247.9823,-97.45362 372.8787,-110.48809 123.8101,-12.54709 247.9823,38.61603 372.8785,77.96296 123.2672,38.61603 247.9824,65.41575 371.0686,65.05025 124.7151,0.3655 247.9823,-26.43422 311.3355,-38.98142 l 61.543,-13.03436 v 155.92567 h -62.0861 c -62.086,0 -185.8962,0 -310.7924,0 -123.6292,0 -247.9824,0 -371.0686,0 -124.8962,0 -249.7925,0 -372.8785,0 -124.3533,0 -247.9825,0 -372.8787,0 -123.81015,0 -247.98235,0 -372.87855,0 -123.2672,0 -247.9825,0 -371.0686,0 -124.7152,0 -247.9824,0 -311.335495,0 h -61.5431 z"
       id="path633-2-7-3-2"
       style="fill:#ffa69e;fill-opacity:1;stroke-width:1.48493" />
    <path
       fill="#b8f1e6"
       fill-opacity="1"
       d="m 1.934455,426.73493 62.0861,-19.49076 c 62.086095,-19.49066 185.896295,-58.47209 310.792495,-58.47209 123.6292,0 247.9824,38.98143 371.0686,77.96285 124.8962,38.98151 249.7924,77.96294 372.87835,58.47217 124.3532,-19.49066 247.9823,-97.45359 372.8787,-110.48806 123.8101,-12.5471 247.9823,38.61603 372.8785,77.96294 123.2672,38.61603 247.9824,65.41575 371.0686,65.05025 124.7151,0.3655 247.9823,-26.43422 311.3355,-38.98143 l 61.543,-13.03436 v 155.9257 h -62.0861 c -62.086,0 -185.8962,0 -310.7924,0 -123.6292,0 -247.9824,0 -371.0686,0 -124.8962,0 -249.7925,0 -372.8785,0 -124.3533,0 -247.9825,0 -372.8787,0 -123.81005,0 -247.98215,0 -372.87835,0 -123.2672,0 -247.9825,0 -371.0686,0 -124.7152,0 -247.9824,0 -311.335495,0 h -61.5431 z"
       id="path633-2-7-9"
       style="fill:#faf3dc;fill-opacity:1;stroke-width:1.48493" />
    <path
       fill="#b8f1e6"
       fill-opacity="1"
       d="M 1.934455,526.11075 64.020554,506.61998 C 126.10665,487.12932 249.91675,448.1479 374.81295,448.1479 c 123.6292,0 247.9824,38.98142 371.0686,77.96285 124.8962,38.98153 249.7924,77.96295 372.87845,58.47219 124.3532,-19.49066 247.9823,-97.45362 372.8787,-110.48808 123.8101,-12.5471 247.9823,38.61603 372.8785,77.96295 123.2672,38.61603 247.9824,65.41575 371.0686,65.05025 124.7151,0.3655 247.9823,-26.43422 311.3355,-38.98142 l 61.543,-13.03436 v 155.9257 h -62.0861 c -62.086,0 -185.8962,0 -310.7924,0 -123.6292,0 -247.9824,0 -371.0686,0 -124.8962,0 -249.7925,0 -372.8785,0 -124.3533,0 -247.9825,0 -372.8787,0 -123.81015,0 -247.98225,0 -372.87845,0 -123.2672,0 -247.9825,0 -371.0686,0 -124.7152,0 -247.9823,0 -311.335396,0 H 1.934455 Z"
       id="path633-2-7-5-7"
       style="fill:#add9df;fill-opacity:1;stroke-width:1.48493" />
    <path
       fill="#b8f1e6"
       fill-opacity="1"
       d="M 1.934455,629.12642 64.020554,609.63566 C 126.10665,590.145 249.91685,551.16357 374.81305,551.16357 c 123.6292,0 247.9824,38.98143 371.0685,77.96285 124.8962,38.98143 249.79247,77.96285 372.87865,58.47209 124.3532,-19.49066 247.9823,-97.45351 372.8787,-110.48798 123.8101,-12.54709 247.9823,38.61603 372.8785,77.96285 123.2672,38.61603 247.9824,65.41576 371.0686,65.05026 124.7151,0.3655 247.9823,-26.43423 311.3355,-38.98143 l 61.543,-13.03436 v 155.9257 h -62.0861 c -62.086,0 -185.8962,0 -310.7924,0 -123.6292,0 -247.9824,0 -371.0686,0 -124.8962,0 -249.7925,0 -372.8785,0 -124.3533,0 -247.9825,0 -372.8787,0 -123.81025,0 -247.98245,0 -372.87865,0 -123.2671,0 -247.9823,0 -371.0685,0 -124.7152,0 -247.9823,0 -311.335496,0 H 1.934455 Z"
       id="path633-5"
       style="stroke-width:1.48493" />
    <path
       fill="#b8f1e6"
       fill-opacity="1"
       d="m 1.934455,728.78939 62.0861,-19.49077 c 62.086095,-19.49065 185.896295,-58.47208 310.792495,-58.47208 123.6292,0 247.9824,38.98143 371.0686,77.96285 124.8962,38.98153 249.7925,77.96296 372.87855,58.47219 124.3532,-19.49066 247.9823,-97.45361 372.8787,-110.48808 123.8101,-12.5471 247.9823,38.61603 372.8785,77.96295 123.2672,38.61603 247.9824,65.41576 371.0686,65.05026 124.7151,0.3655 247.9823,-26.43423 311.3355,-38.98143 l 61.543,-13.03436 v 155.9257 h -62.0861 c -62.086,0 -185.8962,0 -310.7924,0 -123.6292,0 -247.9824,0 -371.0686,0 -124.8962,0 -249.7925,0 -372.8785,0 -124.3533,0 -247.9825,0 -372.8787,0 -123.81015,0 -247.98235,0 -372.87855,0 -123.2672,0 -247.9825,0 -371.0686,0 -124.7152,0 -247.9824,0 -311.335495,0 h -61.5431 z"
       id="path633-2-7-3-9"
       style="fill:#ffa69e;fill-opacity:1;stroke-width:1.48493" />
    <path
       fill="#b8f1e6"
       fill-opacity="1"
       d="m 1.934455,832.47657 62.0861,-19.49077 c 62.086095,-19.49066 185.896295,-58.47208 310.792495,-58.47208 123.6292,0 247.9824,38.98142 371.0686,77.96285 124.8962,38.98153 249.7924,77.96295 372.87835,58.47219 124.3532,-19.49066 247.9823,-97.45362 372.8787,-110.48808 123.8101,-12.5471 247.9823,38.61603 372.8785,77.96295 123.2672,38.61603 247.9824,65.41575 371.0686,65.05025 124.7151,0.3655 247.9823,-26.43422 311.3355,-38.98142 l 61.543,-13.03436 v 155.9257 h -62.0861 c -62.086,0 -185.8962,0 -310.7924,0 -123.6292,0 -247.9824,0 -371.0686,0 -124.8962,0 -249.7925,0 -372.8785,0 -124.3533,0 -247.9825,0 -372.8787,0 -123.81005,0 -247.98215,0 -372.87835,0 -123.2672,0 -247.9825,0 -371.0686,0 -124.7152,0 -247.9824,0 -311.335495,0 h -61.5431 z"
       id="path633-2-7-56"
       style="fill:#faf3dc;fill-opacity:1;stroke-width:1.48493" />
    <path
       fill="#b8f1e6"
       fill-opacity="1"
       d="m 1.934455,931.8524 62.0861,-19.49076 c 62.086095,-19.49066 185.896195,-58.47209 310.792395,-58.47209 123.6292,0 247.9824,38.98143 371.0686,77.96285 124.8962,38.98158 249.7924,77.963 372.87845,58.47224 124.3532,-19.49066 247.9823,-97.45366 372.8787,-110.48813 123.8101,-12.5471 247.9823,38.61603 372.8785,77.96296 123.2672,38.61607 247.9824,65.41583 371.0686,65.05033 124.7151,0.3655 247.9823,-26.43426 311.3355,-38.98146 l 61.543,-13.03436 v 155.92572 h -62.0861 c -62.086,0 -185.8962,0 -310.7924,0 -123.6292,0 -247.9824,0 -371.0686,0 -124.8962,0 -249.7925,0 -372.8785,0 -124.3533,0 -247.9825,0 -372.8787,0 -123.81015,0 -247.98225,0 -372.87845,0 -123.2672,0 -247.9825,0 -371.0686,0 -124.7152,0 -247.9823,0 -311.335395,0 h -61.5431 z"
       id="path633-2-7-5-2"
       style="fill:#add9df;fill-opacity:1;stroke-width:1.48493" />
    <path
       fill="#b8f1e6"
       fill-opacity="1"
       d="m 1.934455,1034.8681 62.0861,-19.4907 c 62.086095,-19.4907 185.896295,-58.47217 310.792495,-58.47217 123.6292,0 247.9824,38.98147 371.0685,77.96287 124.8962,38.9814 249.79243,77.9629 372.87865,58.4721 124.3532,-19.4907 247.9823,-97.4535 372.8787,-110.48797 123.8101,-12.54709 247.9823,38.61607 372.8785,77.96287 123.2672,38.616 247.9824,65.4157 371.0686,65.0502 124.7151,0.3655 247.9823,-26.4342 311.3355,-38.9814 l 61.543,-13.0344 v 155.9257 h -62.0861 c -62.086,0 -185.8962,0 -310.7924,0 -123.6292,0 -247.9824,0 -371.0686,0 -124.8962,0 -249.7925,0 -372.8785,0 -124.3533,0 -247.9825,0 -372.8787,0 -123.81025,0 -247.98245,0 -372.87865,0 -123.2671,0 -247.9823,0 -371.0685,0 -124.7152,0 -247.9823,0 -311.335495,0 h -61.5431 z"
       id="path633-8"
       style="stroke-width:1.48493" />
    <path
       fill="#b8f1e6"
       fill-opacity="1"
       d="m 1.934455,1139.1566 62.086099,-19.4908 c 62.086096,-19.4906 185.896296,-58.4721 310.792496,-58.4721 123.6292,0 247.9824,38.9815 371.0686,77.9629 124.8962,38.9815 249.79244,77.9629 372.87855,58.4722 124.3532,-19.4907 247.9823,-97.4536 372.8787,-110.4881 123.8101,-12.5471 247.9823,38.616 372.8785,77.9629 123.2672,38.6161 247.9824,65.4158 371.0686,65.0503 124.7151,0.3655 247.9823,-26.4342 311.3355,-38.9814 l 61.543,-13.0344 v 155.9257 h -62.0861 c -62.086,0 -185.8962,0 -310.7924,0 -123.6292,0 -247.9824,0 -371.0686,0 -124.8962,0 -249.7925,0 -372.8785,0 -124.3533,0 -247.9825,0 -372.8787,0 -123.81021,0 -247.98235,0 -372.87855,0 -123.2672,0 -247.9825,0 -371.0686,0 -124.7152,0 -247.9824,0 -311.335496,0 H 1.934455 Z"
       id="path633-2-7-3"
       style="fill:#ffa69e;fill-opacity:1;stroke-width:1.48493" />
    <path
       fill="#b8f1e6"
       fill-opacity="1"
       d="m 1.934455,1242.8438 62.0861,-19.4908 c 62.086105,-19.4907 185.896305,-58.4721 310.792505,-58.4721 123.6292,0 247.9824,38.9814 371.0686,77.9629 124.8962,38.9815 249.7924,77.9629 372.87834,58.4722 124.3532,-19.4907 247.9823,-97.4537 372.8787,-110.4881 123.8101,-12.5471 247.9823,38.616 372.8785,77.9629 123.2672,38.6161 247.9824,65.4158 371.0686,65.0503 124.7151,0.3655 247.9823,-26.4342 311.3355,-38.9814 l 61.543,-13.0344 v 155.9257 h -62.0861 c -62.086,0 -185.8962,0 -310.7924,0 -123.6292,0 -247.9824,0 -371.0686,0 -124.8962,0 -249.7925,0 -372.8785,0 -124.3533,0 -247.9825,0 -372.8787,0 -123.81004,0 -247.98214,0 -372.87834,0 -123.2672,0 -247.9825,0 -371.0686,0 -124.7152,0 -247.9824,0 -311.335505,0 h -61.5431 z"
       id="path633-2-7"
       style="fill:#faf3dc;fill-opacity:1;stroke-width:1.48493" />
    <path
       fill="#b8f1e6"
       fill-opacity="1"
       d="m 1.934455,1342.2196 62.0861,-19.4908 c 62.086105,-19.4906 185.896245,-58.4721 310.792445,-58.4721 123.6292,0 247.9824,38.9815 371.0686,77.9629 124.8962,38.9815 249.7924,77.963 372.8784,58.4722 124.3532,-19.4907 247.9823,-97.4536 372.8787,-110.4881 123.8101,-12.5471 247.9823,38.616 372.8785,77.963 123.2672,38.616 247.9824,65.4157 371.0686,65.0502 124.7151,0.3655 247.9823,-26.4342 311.3355,-38.9814 l 61.543,-13.0344 v 155.9257 h -62.0861 c -62.086,0 -185.8962,0 -310.7924,0 -123.6292,0 -247.9824,0 -371.0686,0 -124.8962,0 -249.7925,0 -372.8785,0 -124.3533,0 -247.9825,0 -372.8787,0 -123.8101,0 -247.9822,0 -372.8784,0 -123.2672,0 -247.9825,0 -371.0686,0 -124.7152,0 -247.98234,0 -311.335445,0 h -61.5431 z"
       id="path633-2-7-5"
       style="fill:#add9df;fill-opacity:1;stroke-width:1.48493" />
    <path
       fill="#b8f1e6"
       fill-opacity="1"
       d="m 1.934455,1445.2353 62.086098,-19.4908 c 62.086097,-19.4906 185.896287,-58.4721 310.792507,-58.4721 123.62917,0 247.98238,38.9815 371.06852,77.9629 124.89619,38.9814 249.79236,77.9628 372.87862,58.4721 124.3532,-19.4907 247.9823,-97.4535 372.8787,-110.488 123.8101,-12.5471 247.9823,38.616 372.8785,77.9628 123.2672,38.6161 247.9824,65.4158 371.0686,65.0503 124.7151,0.3655 247.9823,-26.4342 311.3355,-38.9814 l 61.543,-13.0344 v 155.9257 h -62.0861 c -62.086,0 -185.8962,0 -310.7924,0 -123.6292,0 -247.9824,0 -371.0686,0 -124.8962,0 -249.7925,0 -372.8785,0 -124.3533,0 -247.9825,0 -372.8787,0 -123.81025,0 -247.98243,0 -372.87862,0 -123.26715,0 -247.98238,0 -371.06852,0 -124.71522,0 -247.98237,0 -311.335535,0 H 1.934455 Z"
       id="path633"
       style="stroke-width:1.48493" />
  </g>
</svg>
